<svg xmlns="http://www.w3.org/2000/svg" viewBox="0 0 2048 512">
	<defs>
		<style>
			.c1 {
				fill: #01d277;
			}
			.c2 { 
				fill:#347550;
			}
			.c3 { 
				fill:#0c1d24;
			}
		</style>
	</defs>
	<title>Logo</title>
	<path class="c1" d="M1203.0914,188.7293l-.051-28.0837a52.9034,52.9034,0,0,0-18.848-42.837c-39.64-33.262-92.564-77.671-125.647-105.43a52.9054,52.9054,0,0,0-64.354-2.81C960.4935,33.1635,907.7334,70.1065,867.47,98.3a52.9084,52.9084,0,0,0-22.51,41.0309c-.06,1.3775-.0466,2.748,0,4.1143l0,28.4435c-.06,1.376-.0465,2.7452,0,4.11v28.4481a52.91,52.91,0,0,0,18.849,42.837c39.639,33.261,92.564,77.67,125.646,105.43a52.9083,52.9083,0,0,0,64.355,2.809c33.6969-23.595,86.4579-60.538,126.721-88.731a52.9082,52.9082,0,0,0,22.5109-41.031c.0582-1.3339.0474-2.6614.0054-3.9849Z"/>
	<path class="c2" d="M1203.0914,188.7293l-.051-28.0837a52.9034,52.9034,0,0,0-18.848-42.837c-39.64-33.262-92.564-77.671-125.647-105.43a52.9054,52.9054,0,0,0-64.354-2.81C960.4935,33.1635,907.7334,70.1065,867.47,98.3a52.9084,52.9084,0,0,0-22.51,41.0309c-.06,1.3775-.0466,2.748,0,4.1143l0,28.4435a52.9089,52.9089,0,0,0,18.849,42.837c39.639,33.262,92.564,77.67,125.646,105.43a52.9083,52.9083,0,0,0,64.355,2.81c33.6969-23.595,86.4579-60.538,126.721-88.731a52.91,52.91,0,0,0,22.5109-41.032c.0654-1.4993.045-2.99-.0159-4.4762Z"/>
	<path class="c3" d="M1184.1924,117.8085a52.9078,52.9078,0,0,1-3.662,83.868c-40.264,28.193-93.025,65.136-126.7219,88.731a52.9055,52.9055,0,0,1-64.3541-2.81c-33.0829-27.759-86.007-72.168-125.647-105.43a52.9079,52.9079,0,0,1,3.662-83.868c40.264-28.193,93.024-65.136,126.722-88.731a52.9054,52.9054,0,0,1,64.354,2.81c33.083,27.759,86.007,72.168,125.647,105.43Z"/>
	<path class="c1" d="M1132.7164,154.3535c8.1421-5.701,8.3181-14.035.435-20.65l-86-72.163c-7.8829-6.614-18.7279-7.232-26.87-1.531l-112.8589,79.025c-8.1431,5.701-8.3181,14.035-.4351,20.65l107.084,89.854-.857-11.501-99.223-83.258c-3.5219-2.965-3.4269-7.498.212-10.055L1027.0624,65.7c3.651-2.547,9.5491-2.21,13.0841.746l86,72.163c3.522,2.965,3.4271,7.498-.212,10.055l-102.469,71.75-.223,10.595-.099-.014"/>
	<polygon class="c1" points="969.726 159.637 973.596 156.928 958.603 144.346 963.421 140.972 959.701 137.851 946.195 147.309 949.914 150.429 954.732 147.056 969.726 159.637 969.726 159.637"/>
	<polygon class="c1" points="991.002 144.74 994.872 142.03 976.132 126.305 972.262 129.015 979.755 135.303 973.961 139.36 966.466 133.072 962.596 135.782 981.337 151.507 985.207 148.797 977.708 142.505 983.502 138.447 991.002 144.74 991.002 144.74"/>
	<polygon class="c1" points="1005.497 128.813 998.236 133.899 994.489 130.753 1000.69 126.412 996.944 123.267 990.742 127.61 986.994 124.466 993.926 119.611 990.179 116.468 979.372 124.036 998.112 139.761 1009.249 131.963 1005.497 128.813 1005.497 128.813"/><polygon class="c1" points="986.778 167.695 970.913 166.137 969.67 167.007 988.697 182.973 992.624 180.224 982.165 171.448 992.149 172.203 992.069 164.512 1002.505 173.304 1006.426 170.559 987.399 154.594 986.183 155.444 986.778 167.695 986.778 167.695"/><path class="c1" d="M1000.4884,145.3945c-13.317,9.325,5.996,25.5309,19.314,16.206s-5.996-25.531-19.314-16.206Zm15.437,12.9529c-7.741,5.42-19.322-4.2979-11.582-9.718s19.3231,4.298,11.582,9.718Z"/>
	<polygon class="c1" points="1036.644 120.56 1032.774 123.27 1051.509 138.99 1055.38 136.28 1036.644 120.56 1036.644 120.56"/>
	<polygon class="c1" points="1058.749 128.153 1055.002 125.01 1061.203 120.667 1057.456 117.524 1051.254 121.865 1047.507 118.722 1054.439 113.868 1050.692 110.723 1039.89 118.288 1058.626 134.008 1069.757 126.214 1066.01 123.07 1058.749 128.153 1058.749 128.153"/>
	<path class="c1" d="M999.5224,183.18l-5.7659,4.037,18.7359,15.721,5.7661-4.037c12.8831-9.021-5.853-24.742-18.736-15.721Zm14.9891,12.576-1.8961,1.328-11.242-9.433,1.897-1.327c7.5231-5.268,18.764,4.164,11.2411,9.432Z"/>
	<path class="c1" d="M1032.9725,174.1535c.406-1.531-.5439-3.126-1.909-4.348a8.9882,8.9882,0,0,0-11.178-.925l-7.663,5.366,18.762,15.743,7.6631-5.365c3.1169-2.219,3.18-6.123.1389-8.674-.021-.019-.043-.037-.0649-.055a8.0893,8.0893,0,0,0-5.749-1.742Zm-13.11.503,3.441-2.41a3.3848,3.3848,0,0,1,3.699.319,1.771,1.771,0,0,1,.08,2.853l-3.441,2.409-3.7791-3.171Zm14.709,7.046-3.441,2.409-3.7469-3.144,3.441-2.41c.015-.01.0289-.021.0439-.031a3.2657,3.2657,0,0,1,3.743.213.1992.1992,0,0,1,.022.019l.027.022a1.7483,1.7483,0,0,1-.061,2.911l-.022.015-.006-.004Z"/>
	<polygon class="c1" points="1030.975 140.097 1015.764 135.18 1011.298 138.308 1039.556 147.968 1040.426 147.359 1030.42 124.917 1025.953 128.046 1030.975 140.097 1030.975 140.097"/>
	<path class="c1" d="M759.259,425.7471H728.1042V415.65H802.53v10.0967H771.3748V510.27H759.259Z"/>
	<path class="c1" d="M820.2693,415.65h13.27l13.4141,40.2422,4.76,15.2891h.5771l4.6152-15.2891,13.27-40.2422h13.27V510.27H873.2034V457.0469q0-2.8843.1445-6.7793.1421-3.895.36-7.8613t.4326-7.7881q.2168-3.82.5049-6.707h-.4326l-6.2021,20.1924L855.03,484.5957h-6.4907l-12.981-36.4922-6.3467-20.1924h-.4326q.1421,2.8872.4326,6.707.2878,3.8232.5771,7.7881.2871,3.97.4326,7.8613.1421,3.8936.1445,6.7793V510.27H820.2693Z"/>
	<path class="c1" d="M907.386,415.65h23.0781q21.4893,0,32.6689,12.1162,11.1768,12.1157,11.1787,34.7607a66.4965,66.4965,0,0,1-2.8125,20.1211,40.5375,40.5375,0,0,1-8.2939,15,35.7669,35.7669,0,0,1-13.5576,9.376,49.653,49.653,0,0,1-18.6064,3.2451H907.386Zm22.3564,84.8115q16.1528,0,24.16-9.9531,8.0054-9.9521,8.0049-27.9814t-8.0049-27.5488q-8.0054-9.52-24.16-9.52H919.3577v75.0029Z"/>
	<path class="c1" d="M996.5227,415.65h25.9619a62.3722,62.3722,0,0,1,13.1982,1.2988,30.8791,30.8791,0,0,1,10.24,4.0381,19.3171,19.3171,0,0,1,6.6348,7.14,22.0034,22.0034,0,0,1,2.38,10.6016,21.29,21.29,0,0,1-4.11,12.7646q-4.11,5.7-12.4766,7.8613v.5771q10.3857,1.5879,16.1543,7.2109,5.7671,5.6265,5.77,15.4336a26.7751,26.7751,0,0,1-2.5957,12.1162,23.9462,23.9462,0,0,1-7.2842,8.6543,32.833,32.833,0,0,1-11.251,5.1924,56.83,56.83,0,0,1-14.4951,1.73h-28.126Zm23.9434,40.3867q12.1157,0,17.38-4.1826t5.2646-12.1162q0-7.7886-5.5527-11.1787-5.5547-3.3867-16.5156-3.39h-12.4043v30.8672Zm2.4512,44.7129q12.2578,0,18.8955-4.5439,6.6328-4.5425,6.6348-14.207,0-8.7964-6.49-12.9092-6.4907-4.11-19.04-4.11h-14.2793V500.75Z"/>
	<path class="c3" d="M1082.3411,415.65h12.1162v47.4541h.4326l39.81-47.4541h13.5576l-29.8564,36.06,33.3184,58.56h-13.4141L1110.9,461.085l-16.4424,19.1836V510.27h-12.1162Z"/>
	<path class="c3" d="M1167.7288,440.1709h44.4248V510.27h-11.8281V449.835h-32.5967Zm37.2129-14.4238a9.718,9.718,0,0,1-6.8516-2.4521,8.56,8.56,0,0,1-2.668-6.6348,8.7977,8.7977,0,0,1,2.668-6.707,10.4639,10.4639,0,0,1,13.63,0,8.6882,8.6882,0,0,1,2.7412,6.707,8.4557,8.4557,0,0,1-2.7412,6.6348A9.7874,9.7874,0,0,1,1204.9417,425.7471Z"/>
	<path class="c3" d="M1271,449.835H1251.24v-8.9424l20.1934-.7217,1.5859-19.6162h9.8086v19.6162h34.3281v9.6641h-34.3281v33.3184a35.1308,35.1308,0,0,0,.8652,8.293,14.77,14.77,0,0,0,2.8848,5.9863,12.1386,12.1386,0,0,0,5.4814,3.6777,25.6493,25.6493,0,0,0,8.51,1.2266,43.5287,43.5287,0,0,0,9.0869-.8662,51.8738,51.8738,0,0,0,7.7881-2.3076l2.4521,8.6543a72.48,72.48,0,0,1-10.3848,2.957A55.5173,55.5173,0,0,1,1297.9719,512a34.5253,34.5253,0,0,1-12.8369-2.0908,20.059,20.059,0,0,1-8.2939-5.9141,23.6088,23.6088,0,0,1-4.4707-9.1592,47.4656,47.4656,0,0,1-1.37-11.8271Z"/>
</svg>